<svg width="24" height="24" viewBox="0 0 24 24" fill="none" xmlns="http://www.w3.org/2000/svg">
<g clip-path="url(#clip0_20_4968)">
<path d="M14.0156 0.0328115C13.7813 0.056249 13.2422 0.178124 12.9094 0.281249C11.3953 0.745312 10.2516 1.89375 9.75469 3.44531C9.4875 4.28437 9.45938 4.575 9.43594 6.75937L9.4125 8.76562H7.58906H5.76562V10.9219V13.0781H7.59375H9.42188V18.5391V24H11.6484H13.875V18.5391V13.0781H15.7172H17.5547L17.8266 10.9547C17.9766 9.79219 18.0984 8.82187 18.0938 8.79844C18.0938 8.77969 17.1422 8.76562 15.9797 8.76562H13.8656L13.8844 7.0875C13.9031 5.49375 13.9078 5.4 14.0109 5.08594C14.0953 4.82344 14.1703 4.71094 14.3625 4.51875C14.8031 4.07812 15.2906 3.98437 17.2172 3.98437H18.2344V2.06719V0.149999L17.9672 0.121874C17.0156 0.018749 14.6531 -0.037501 14.0156 0.0328115Z" fill="#555555"/>
</g>
<defs>
<clipPath id="clip0_20_4968">
<rect width="24" height="24" fill="white"/>
</clipPath>
</defs>
</svg>
