<svg width="24" height="24" viewBox="0 0 24 24" fill="none" xmlns="http://www.w3.org/2000/svg">
<path d="M7.00204 0.0446043C4.99579 0.152417 3.46767 0.696168 2.35673 1.68523C0.870793 3.01179 0.21923 4.54929 0.0786053 7.07117C-0.0479572 9.35398 -0.0151447 16.4321 0.130168 17.7118C0.327043 19.5024 0.936418 20.8993 1.96767 21.9399C2.80204 22.779 3.60829 23.2524 4.78954 23.5946C6.05517 23.9602 6.99267 24.0071 12.7114 23.979C17.3052 23.9602 17.6755 23.9462 18.6177 23.754C21.3833 23.1962 23.2583 21.3071 23.7927 18.5462C23.9802 17.5805 23.9895 17.0696 23.9755 11.5477L23.9567 6.25085L23.8489 5.66492C23.5677 4.1321 23.0145 3.00242 22.0958 2.06492C20.7974 0.738355 19.3489 0.180543 16.8599 0.0399179C15.852 -0.0163336 8.04267 -0.0116454 7.00204 0.0446043ZM17.2817 2.28992C18.6786 2.42585 19.6442 2.79617 20.3614 3.47586C20.8958 3.97742 21.238 4.53523 21.4724 5.28523C21.6505 5.84773 21.7302 6.36804 21.7817 7.32898C21.8427 8.42117 21.8427 15.6118 21.7817 16.6852C21.6739 18.6305 21.3177 19.5915 20.3849 20.4868C19.6442 21.1899 18.7911 21.5509 17.4927 21.6962C16.3302 21.8274 7.66298 21.8274 6.57079 21.6962C5.66142 21.5884 4.91142 21.3634 4.36298 21.0352C4.04892 20.8524 3.43017 20.2805 3.20048 19.9665C2.83017 19.4649 2.53954 18.7055 2.40361 17.8993C2.27704 17.1399 2.23486 15.6212 2.23486 11.9696C2.23486 8.37898 2.27704 6.90242 2.39892 6.1571C2.60517 4.87273 3.08798 3.96804 3.90829 3.30711C4.33954 2.96023 4.65361 2.79148 5.23486 2.59929C5.84892 2.39773 6.53798 2.2946 7.63486 2.24304C8.88173 2.18679 16.6208 2.22429 17.2817 2.28992Z" fill="#555555"/>
<path d="M18.0223 4.17882C17.3192 4.38038 16.8927 5.07882 17.0098 5.83351C17.0614 6.16163 17.1739 6.38663 17.4083 6.61632C17.6942 6.90694 17.9005 6.99132 18.3739 7.01476C18.763 7.03351 18.8005 7.02882 19.0864 6.88819C19.4098 6.72882 19.6114 6.52257 19.7802 6.18038C19.9208 5.88507 19.9255 5.30851 19.7848 5.00382C19.4755 4.33819 18.7208 3.98663 18.0223 4.17882Z" fill="#555555"/>
<path d="M11.216 5.85665C10.2739 5.98321 9.34104 6.34415 8.51604 6.89728C8.07542 7.19259 7.20354 8.06446 6.90823 8.50978C6.44417 9.2129 6.0926 10.066 5.93323 10.891C5.83479 11.3832 5.84885 12.7098 5.95667 13.202C6.49573 15.7051 8.31448 17.5285 10.8223 18.0723C11.366 18.1895 12.6973 18.1895 13.241 18.0723C14.5067 17.7957 15.4629 17.2801 16.3723 16.3754C17.2957 15.4613 17.8348 14.4629 18.1114 13.1645C18.2285 12.6113 18.2285 11.3738 18.1114 10.8207C17.577 8.30352 15.7207 6.4379 13.227 5.92228C12.7817 5.82853 11.6707 5.79103 11.216 5.85665ZM12.9973 8.14884C14.4082 8.50978 15.4957 9.59727 15.8801 11.0316C15.9598 11.3223 15.9832 11.5426 15.9832 11.9926C15.9832 12.6676 15.8848 13.1035 15.6176 13.666C14.7645 15.466 12.702 16.3848 10.8598 15.7848C9.50979 15.3488 8.53011 14.2941 8.15511 12.8832C8.04261 12.4613 8.04729 11.5285 8.15979 11.0785C8.63792 9.21759 10.3348 7.94259 12.2004 8.03634C12.4395 8.04571 12.7957 8.09727 12.9973 8.14884Z" fill="#555555"/>
</svg>
