<svg width="25" height="24" viewBox="0 0 25 24" fill="none" xmlns="http://www.w3.org/2000/svg">
<g clip-path="url(#clip0_20_4976)">
<path d="M11.3627 3.49697C8.30176 3.57197 3.69863 3.94697 3.05176 4.17197C2.18926 4.47666 1.45801 5.3251 1.3127 6.1876C1.25645 6.52041 1.15801 7.51416 1.06426 8.69541C0.979883 9.71729 0.979883 14.2829 1.06426 15.3048C1.15801 16.486 1.25645 17.4798 1.3127 17.8126C1.45801 18.6751 2.18926 19.5235 3.05176 19.8282C3.51582 19.9923 6.94238 20.3157 9.51113 20.4423C10.9924 20.5173 14.9674 20.5173 16.4486 20.4423C18.9236 20.3204 22.4346 19.9923 22.8939 19.8376C23.7471 19.547 24.5018 18.6751 24.6471 17.8126C24.7033 17.4798 24.8018 16.486 24.8955 15.3048C24.9799 14.2829 24.9799 9.71729 24.8955 8.69541C24.8018 7.51416 24.7033 6.52041 24.6471 6.1876C24.5018 5.3251 23.7471 4.45322 22.8939 4.1626C22.4346 4.00791 18.8111 3.67041 16.5189 3.5626C15.3939 3.51572 12.333 3.47353 11.3627 3.49697ZM16.8705 12.0001C16.8705 12.0188 15.5533 12.9095 13.9408 13.9829L11.0111 15.9376V12.0001V8.0626L13.9408 10.0173C15.5533 11.0907 16.8705 11.9813 16.8705 12.0001Z" fill="#555555"/>
</g>
<defs>
<clipPath id="clip0_20_4976">
<rect width="24" height="24" fill="white" transform="translate(0.97998)"/>
</clipPath>
</defs>
</svg>
